<svg id="Layer_1" data-name="Layer 1" xmlns="http://www.w3.org/2000/svg" viewBox="0 0 1815.53 217.53">
  <path id="salud-S" d="M176.86,434.15q0,5-15,24.78h-2.09q-2.33-1-2.91-7.61-1.28-13.31-8.25-21.76t-16.75-8.46q-9.18,0-15.81,7.42a25.72,25.72,0,0,0-6.63,17.73q0,7.49,4.21,16.06t21.8,27.19Q153,508.13,158,519.16a51,51,0,0,1,5,21q0,23-18,40.48t-42,17.49q-19.87,0-32.79-10.26t-12.9-16.72q0-3.61,7.09-16.78t8.14-13.17c2.48,0,4.24.79,5.29,2.39s1.76,4.54,2.15,8.84q1.74,20.15,8.78,27.76t18.31,7.62q12.32,0,21.51-9.49a30.65,30.65,0,0,0,9.18-22,31.47,31.47,0,0,0-3.56-13.74q-3.57-7.27-20.12-24.8T92.45,488.11a60.6,60.6,0,0,1-5.12-23.62q0-20,13.61-36.8t36.16-16.78q17.09,0,28.42,8.71T176.86,434.15Z" transform="translate(-52.16 -389.15)" fill="#fff"/>
  <path id="salud-A" d="M306.49,566.35q-18.6,19.64-26.62,25.57t-15.35,5.94q-18.37,0-17.32-36-11.62,18.46-21.45,27.25t-20.29,8.78q-10.23,0-17.38-10.66t-7.15-26.14a75.91,75.91,0,0,1,9.59-36.93,84.21,84.21,0,0,1,24.59-28.4q15-10.85,26.51-10.84,14.52,0,20.34,14.84l23.77-14.59h6.52L282,523q-7.92,28.54-7.92,39.13,0,11.1,7.09,11.1,4.53,0,10-5.36t15.34-16.33Zm-85.1,7.1q11.63,0,21.91-22t10.29-40.6q0-7.23-2.9-11.3a9.12,9.12,0,0,0-7.79-4.07q-11.64,0-22,21.95t-10.4,40.41q0,7,3.08,11.3A9.29,9.29,0,0,0,221.39,573.45Z" transform="translate(-52.16 -389.15)" fill="#fff"/>
  <path id="salud-L" d="M383.34,566.35q-15.81,16.14-27.73,23.82t-22.73,7.69q-12.44,0-20.05-10.72t-7.62-28.79q0-27.12,10.58-65.07a441.55,441.55,0,0,1,25.7-70L371,411.16a6.84,6.84,0,0,1,2.09-.51q3.38,0,5.52,5.48t2.15,14.79a124.69,124.69,0,0,1-10.92,51q-10.94,24.66-34.19,52.67-.93,13.42-.93,18.46,0,11.24,3.72,17.82t9.89,6.59q6.27,0,13.37-5t21.62-20.91Zm-44.53-50.48A159.8,159.8,0,0,0,362.76,475Q372,452.39,372,436.1a19.45,19.45,0,0,0-1.28-7.7c-.85-1.93-1.94-2.91-3.26-2.91q-4.29,0-12.49,23.8T338.81,515.87Z" transform="translate(-52.16 -389.15)"/>
  <path id="salud-U" d="M507.51,566.35q-15.35,16.14-25.69,23.82t-18.6,7.69q-9.2,0-14.13-8.14t-4.94-22.08q-12.79,15.63-22.91,23.05t-19.76,7.42q-8.84,0-14.18-8.13T382,567.9q0-26.85,16.27-75.66l31.06-6.87q-19.15,61.89-19.2,79.44,0,12.39,8.37,12.39,6,0,15-10.91t11.16-19l15.23-55,31.65-7.1q-11,38.85-15,54.61t-4.08,22.08q0,12.13,7.45,12.14,6,0,17.92-12.26l9.77-10.2Z" transform="translate(-52.16 -389.15)" fill="#fff"/>
  <path id="salud-D" d="M631.57,566.35q-16.76,18.46-25.52,25t-15.53,6.52q-8.25,0-13.08-8.91t-4.94-26.08Q563,580,551.75,589t-20.29,8.91q-9.88,0-17.44-10.4a40.23,40.23,0,0,1-7.55-24.33q0-28.8,18.89-53.39T566,485.14q6,0,9.48,1.94a31,31,0,0,1,7.5,6.58l16.62-77.2q20.37-5.29,27.47-5.3c1.55,0,2.33.69,2.33,2.07q0,1.42-5.81,26.74Q600.35,541.19,600.35,562.1A14.67,14.67,0,0,0,602.2,570a5.57,5.57,0,0,0,4.88,3q7.42,0,24.49-21.43Zm-84.06,6.85q11.38,0,21.27-21.44t9.89-40.15q0-7.62-3.09-12.14A9.37,9.37,0,0,0,567.5,495q-10.8,0-20.92,22.4t-10.12,40.47q0,7.11,3,11.23A9.41,9.41,0,0,0,547.51,573.2Z" transform="translate(-52.16 -389.15)" fill="#fff"/>
  <path id="mental-M" d="M929.2,566.35q-26,31.13-47.43,31.12-13,0-19.83-14t-6.8-37.31q0-18.08,6.69-49.7t17.26-53.2l6.75-13.43a149.7,149.7,0,0,0-22.68,35.06q-8.83,19-21.1,53.26t-18.54,46.6a144.85,144.85,0,0,1-12,20.21q-5.75,7.82-10.23,10.13t-15.63,2.33q-4.3,0-4.31-2.58c0-.18.52-2.89,1.54-8.14s2.08-13.66,3.14-25.24,1.83-31.24,2.3-59,4.11-51.54,10.93-71.33q-11,13.81-22.35,64.29L774,508.13q-12,52.54-27.47,70.94t-30.37,18.4A23.06,23.06,0,0,1,699.94,591q-7-6.45-7-14.84,0-6.46,8.39-14.46t10.58-8a3.28,3.28,0,0,1,3.36,1.94q.81,1.93,2.1,10.65t3.9,11.36a8.89,8.89,0,0,0,6.59,2.65q9,0,19.82-19.95t19.82-61.65l3.38-15.62a263,263,0,0,1,8-30.47,134.84,134.84,0,0,1,10.5-22.73q9.44-16.26,11.59-17.36c1.43-.73,4.13-1.33,8.08-1.81A100.38,100.38,0,0,1,821,410c1.55,0,2.33,1,2.33,3a46.3,46.3,0,0,1-.73,5.81,273.38,273.38,0,0,0-2.18,36.28l.23,34.6q.24,45.19-6.51,72.95,6.17-8.26,17.9-42.61,17-48.67,30.93-73.07a137.08,137.08,0,0,1,16-22.53q9.36-10.78,13-11.56a104.54,104.54,0,0,1,20.81-2.58c2.1,0,3.14.65,3.14,1.94q0,2.71-3.82,12.14-9,22.73-16.87,61.47t-7.91,61.69q0,26,14.3,26,11.63,0,27.67-21.94Z" transform="translate(-52.16 -389.15)" fill="#406087"/>
  <path id="mental-E" d="M1016.05,566.35q-14.76,16.14-26.51,23.82a46.39,46.39,0,0,1-25.92,7.69q-15.82,0-25.52-11.24t-9.71-29.56a79,79,0,0,1,17.09-49.52q17.09-22.14,37.9-22.14,10.82,0,17.32,6.2t6.52,16.27q0,26.71-51.16,43.38,4.65,25.17,24.3,25.17A26.24,26.24,0,0,0,995,571.84q7-4.58,21-20.33Zm-60.92-23.88q29.76-9.3,29.76-34.34,0-12.4-8.14-12.4-7.66,0-14.65,13T955.13,542.47Z" transform="translate(-52.16 -389.15)" fill="#406087"/>
  <path id="mental-N" d="M1130.22,566.35q-26.85,31.51-46,31.51a15.19,15.19,0,0,1-12.55-6.07q-4.77-6.07-4.77-16.27,0-13.82,10.23-42.22,5.46-15.22,5.46-19.36t-2.9-4.14a8.55,8.55,0,0,0-4.3,1.81,55.19,55.19,0,0,0-5.7,5q-2.91,3-6.51,7.23c-2.1,2.41-4.34,5.16-6.75,8.26l-6.51,8.39a28,28,0,0,0-5.34,12.27q-1.76,11-2.33,20.14-.35,6.84-.35,18.46l-25.69,6.71q-1.29-17.43-1.28-26a171.8,171.8,0,0,1,4.36-39.37,273.77,273.77,0,0,1,14-41.84l28.37-6.06q-9,26.72-11.75,42.09,19.06-23.64,30.26-32.73t19.9-9.11a12.13,12.13,0,0,1,9.87,5,19.36,19.36,0,0,1,3.94,12.44q0,12.37-10,40.78-6.85,19.5-6.86,25.33,0,7.77,5.71,7.76,8.51,0,27.51-24.91Z" transform="translate(-52.16 -389.15)" fill="#406087"/>
  <path id="mental-T" d="M1197.07,566.35q-14.64,16.14-25.34,23.82t-20.35,7.69q-10,0-16.22-9.36t-6.22-24.6q0-13.42,6-35.45l4.93-19.55-8.92.52,3.72-20.27,11.06-.52,10.91-40.28,31.06-7.08-12,44.91,16.41-1L1188.23,505l-18,1.55-7.75,28.93q-4,15.07-4,24a16.62,16.62,0,0,0,2.73,9.89,8.34,8.34,0,0,0,7,3.81A20,20,0,0,0,1180,569q5.82-4.2,17.11-17.49Z" transform="translate(-52.16 -389.15)" fill="#406087"/>
  <path id="mental-A" d="M1321.13,566.35q-18.62,19.64-26.63,25.57t-15.34,5.94q-18.37,0-17.33-36-11.62,18.46-21.45,27.25t-20.29,8.78q-10.23,0-17.38-10.66t-7.15-26.14a76,76,0,0,1,9.59-36.93,84.43,84.43,0,0,1,24.59-28.4q15-10.85,26.51-10.84,14.54,0,20.35,14.84l23.76-14.59h6.52L1296.63,523q-7.92,28.54-7.92,39.13,0,11.1,7.08,11.1,4.55,0,10-5.36t15.34-16.33Zm-85.11,7.1q11.63,0,21.92-22t10.29-40.6q0-7.23-2.91-11.3a9.11,9.11,0,0,0-7.79-4.07q-11.62,0-22,21.95t-10.41,40.41q0,7,3.08,11.3A9.3,9.3,0,0,0,1236,573.45Z" transform="translate(-52.16 -389.15)" fill="#406087"/>
  <path id="mental-L" d="M1398,566.35q-15.81,16.14-27.73,23.82t-22.73,7.69q-12.43,0-20.06-10.72t-7.61-28.79q0-27.12,10.58-65.07a441.55,441.55,0,0,1,25.69-70l29.53-12.14a6.83,6.83,0,0,1,2.1-.51q3.36,0,5.52,5.48t2.15,14.79a124.54,124.54,0,0,1-10.93,51q-10.92,24.66-34.18,52.67-.93,13.42-.93,18.46,0,11.24,3.72,17.82t9.88,6.59q6.29,0,13.37-5T1398,551.51Zm-44.53-50.48a160.09,160.09,0,0,0,24-40.86q9.18-22.62,9.18-38.91a19.46,19.46,0,0,0-1.27-7.7c-.86-1.93-1.94-2.91-3.26-2.91q-4.3,0-12.5,23.8T1353.45,515.87Z" transform="translate(-52.16 -389.15)" fill="#406087"/>
  <path id="um-U" d="M1638.53,566.22q-26.51,31.63-45.46,31.64-9.88,0-18.49-9.94t-7.9-33.44q-20.36,43.38-46.28,43.38-12.56,0-20.17-10.72t-7.61-28.79q0-19.5,14.18-64.43,12-38.48,12-51.12,0-9-3.78-14.53t-9.83-5.49q-9.18,0-17.79,12.08t-8.6,25.24a26.64,26.64,0,0,0,7.79,19.49q2.91,2.85,2.91,4.78,0,4.26-5.12,10.46t-9.18,6.19q-4.77,0-9.07-7.61a33.28,33.28,0,0,1-4.3-16.66q0-24.66,16-45.25t35-20.59q14.88,0,24.18,12.84t9.3,33.64q0,24.41-13.71,67.14-9.54,29.57-9.54,39.89,0,6.71,2.73,10.52a8.73,8.73,0,0,0,7.5,3.81q9,0,17.09-13.43a135.44,135.44,0,0,0,13-28.15q4.83-14.71,11.69-43L1585.16,454q4.2-16,7.34-26.28t4-11.62a4.65,4.65,0,0,1,2.91-1.87q2-.51,7.75-1.29l16.65-2.06c2.4,0,3.45.6,3.14,1.82l-5.48,21.95q-7.7,30.33-16.37,71.9t-8.67,52.93q0,8.52,2.91,13.62t7.79,5.1q5.46,0,11.86-5.32t19.53-21.53Z" transform="translate(-52.16 -389.15)" fill="#406087"/>
  <path id="um-M" d="M1856.92,562.13q-26,31.11-47.44,31.11-13,0-19.82-13.94t-6.8-37.31q0-18.07,6.68-49.71t17.27-53.19l6.74-13.43a149.92,149.92,0,0,0-22.67,35q-8.84,19.05-21.1,53.26t-18.55,46.61a143.76,143.76,0,0,1-12,20.2q-5.76,7.82-10.23,10.14t-15.64,2.32q-4.3,0-4.3-2.58,0-.25,1.54-8.13t3.14-25.24q1.59-17.37,2.3-59T1726.94,427q-10.95,13.82-22.35,64.3l-2.91,12.65q-12,52.54-27.47,70.94t-30.38,18.4a23.13,23.13,0,0,1-16.18-6.45q-7-6.46-7-14.85,0-6.45,8.38-14.46t10.59-8a3.26,3.26,0,0,1,3.35,1.94q.83,1.94,2.1,10.65t3.91,11.37a8.9,8.9,0,0,0,6.59,2.64q9,0,19.82-20t19.82-61.65l3.38-15.62a263.58,263.58,0,0,1,8-30.47,134.69,134.69,0,0,1,10.49-22.72q9.45-16.28,11.6-17.37c1.43-.73,4.13-1.33,8.08-1.8a98.17,98.17,0,0,1,11.86-.71c1.55,0,2.32,1,2.32,3a44.79,44.79,0,0,1-.73,5.81,273.37,273.37,0,0,0-2.17,36.28l.23,34.6q.23,45.18-6.51,72.94,6.17-8.25,17.9-42.6,17-48.67,30.93-73.08a136.91,136.91,0,0,1,16-22.53q9.34-10.77,13-11.55a104.57,104.57,0,0,1,20.81-2.59c2.09,0,3.14.65,3.14,1.94q0,2.71-3.82,12.14-9,22.74-16.88,61.47t-7.9,61.7q0,26,14.3,26,11.63,0,27.67-22Z" transform="translate(-52.16 -389.15)" fill="#406087"/>
  <path d="M63,556.74s19.78,29.49,25.78,32.43,16.09,6.13,23,3.57,12.77-2.55,20.94-10.21,12.89-13.27,14.3-30.38-11.87-40-22.47-47.75-27.7-26.8-26.81-48,16.85-35.61,18.64-35.49,4-4.21,14.3-5.36a26.48,26.48,0,0,1,17.61,4.34L159,429.34l11.23,13.28" transform="translate(-52.16 -389.15)" fill="none" stroke="#000" stroke-miterlimit="10" stroke-width="26"/>
  <path d="M258.53,504.66s-2.81-9.7-8.68-13.28-13.53-1.53-13.53-1.53-7,1.28-14,8.43-12.51,11.1-18.13,25.78-15.7,31.28-8.68,49.54,28.59,6.12,28.59,6.12,7.79-3.19,18.9-17.87,26.81-58.72,26.81-58.72l5.61-4.6s2.81-3.19,4.6.26-4.6,17.1-4.6,17.1-12.38,33.71-14,43.41-2.81,16.47.51,22.47,7.41,6.25,10.21,3.83,6.13-3.45,12.77-7.92S342,520,342,520s21.32-30.77,20.94-33.7,10-18.64,11.49-35,4.72-21.83.51-28.6-14.81-1-14.81-1-5.24-.38-12.51,9.45S311,566.32,318.28,576.4s2.42,8.3,11.74,11.75,25.53-5.36,25.53-5.36l27.07-23s24.51-33.7,27.83-59-17,72.89-14.3,76.85,1.66,6.64,6.89,11.49,22.47-4.6,26.3-10.72S438.15,568,444.4,559.3s26.05-61.79,26.05-61.79S455,566.45,456.66,574.36s3.7,12.9,7.66,14.81,16.85-6.38,16.85-6.38l27.06-23.24,9.79-8.3,2-1.65s1-4.55,3.09-10.89c3.57-11.05,10.24-27.52,19.89-34.82,1.13-.86,2.26-1.7,3.36-2.51,13.68-10.05,25-15.9,32.64-2.08,8.3,14.93.76,46.34-4.34,53.87s-26,36.26-35,36-18.9-3.7-23-16.85,2.55-27.83,2.55-27.83" transform="translate(-52.16 -389.15)" fill="none" stroke="#000" stroke-miterlimit="10" stroke-width="26"/>
  <path d="M609.34,420.66,584.57,565.94s-1.53,9.06.26,13,8.43,13.91,24.51-.26,18.13-15.83,18.13-15.83l2.55-4.08" transform="translate(-52.16 -389.15)" fill="none" stroke="#000" stroke-miterlimit="10" stroke-width="26"/>
  <path d="M698.7,569s22,37.91,40.6,9.7,20.55-27.7,33.44-87.06,27.32-72.64,29.37-72.51,7.66.76,7.66.76l-12,163.66s13.91-3.32,26-28.85,23.23-66.38,30.64-84.76,25.66-41.88,33.19-48.26S903,420.4,903,420.4s-36.39,92.69-30.64,145.79,53.36-1.28,56.42-7.4,36.26-12,58.47-29.36,5-44.43-9.19-39.58-22.59,15.7-28.08,22-11.62,61.53-3.58,67.66,23.24,17.74,52.34-4.34,41.75-54.64,44.17-77.36-16.08,86-16.08,86S1039,543.85,1060,521s33.7-23.49,33.7-23.49,11.36-7.4-2,30.13-13.92,45.83-9.19,53.87,25.15,3.58,31.15-4.85,15.31-14.81,15.31-14.81,28.86-50,37.79-102.89-25.79,103.53-22,119,31.79,3.7,42.39-8.17,24.89-27.83,37.27-55.15c5-11.13,10.85-17.43,16.58-20.88,8.34-5,16.53-4,22-3.12,9.19,1.53,11.23,17.1,11.23,17.1s-7.15,43-18.64,56.68-42,45.07-46.72-.76,14-59.11,31.91-66.13,23.24-7.28,39.32,7.15,9.71-6.64,9.71-6.64-22.6,52.72-11.75,71.24,14.94,14.17,27.58,3.83,59.23-59,69.44-83.75,19.15-30.89,14.56-66.38-45.83,55.15-48.77,66.89-9.83,77.24-3.83,86,25.79,22.85,60.51-14" transform="translate(-52.16 -389.15)" fill="none" stroke="#000" stroke-miterlimit="10" stroke-width="26"/>
  <path d="M1482,494.45s-32-59,25-77.36-6.64,95.36-2,147.31,51.32,12.51,59-16.85,27.83-54.72,45.19-129.44-35.91,136.34-29.28,153.19,14.81,25,40.17,6.47,14.64-11.24,14.64-11.24,18.39,35.75,42.9-2.72,11.23-65.53,35.74-124.26,30-9.7,24.51,8.51-13.62,132.77-13.62,132.77,19.41-4.77,34.73-52.77,40.51-93.27,40.51-93.27L1821.6,414l7.14,1s-39,126.47-29.61,153.19,49.87,1.88,56.85-12.59" transform="translate(-52.16 -389.15)" fill="none" stroke="#000" stroke-miterlimit="10" stroke-width="26"/>
  <line x1="1081.43" y1="109.98" x2="1136.24" y2="107.59" fill="none" stroke="#000" stroke-miterlimit="10" stroke-width="22"/>
</svg>
